<?xml version="1.0" standalone="no"?>
<!DOCTYPE svg PUBLIC "-//W3C//DTD SVG 20010904//EN"
 "http://www.w3.org/TR/2001/REC-SVG-20010904/DTD/svg10.dtd">
<svg version="1.0" xmlns="http://www.w3.org/2000/svg"
 width="900.000000pt" height="900.000000pt" viewBox="0 0 900.000000 900.000000"
 preserveAspectRatio="xMidYMid meet">
<metadata>
Created by potrace 1.10, written by Peter Selinger 2001-2011
</metadata>
<g transform="translate(0.000000,900.000000) scale(0.100000,-0.100000)"
fill="#000000" stroke="none">
<path d="M5485 8758 c-66 -4 -199 -15 -295 -23 -96 -9 -249 -22 -340 -30 -329
-29 -528 -46 -685 -60 -88 -8 -245 -21 -350 -30 -104 -9 -237 -20 -295 -25
-58 -6 -247 -22 -420 -36 -254 -21 -319 -29 -334 -42 -10 -10 -92 -114 -181
-232 -90 -118 -211 -278 -270 -355 -59 -77 -208 -273 -330 -435 -123 -162
-243 -320 -266 -350 -23 -30 -153 -201 -289 -380 -135 -179 -325 -428 -422
-555 -96 -126 -188 -248 -204 -271 -16 -22 -77 -103 -135 -180 -58 -76 -110
-148 -116 -158 -10 -19 -8 -30 32 -166 8 -25 23 -70 35 -100 12 -30 26 -68 30
-85 12 -43 121 -367 129 -385 4 -8 31 -89 60 -180 29 -91 59 -181 65 -200 7
-19 18 -51 25 -70 6 -19 124 -370 261 -780 137 -410 255 -761 261 -780 7 -19
17 -51 24 -70 25 -73 40 -116 180 -535 195 -584 196 -587 211 -586 15 1 21 41
69 426 25 204 50 402 55 440 9 68 24 187 55 430 9 66 22 163 31 215 8 52 14
111 14 131 0 59 11 99 31 110 15 8 27 2 63 -31 56 -52 79 -112 101 -265 31
-223 85 -437 138 -545 62 -126 200 -229 394 -295 191 -64 228 -70 458 -70 232
0 253 4 413 73 107 45 163 83 235 156 126 128 169 220 254 536 31 114 75 187
142 233 40 28 54 31 116 32 62 0 75 -4 114 -30 79 -54 112 -117 166 -325 23
-88 81 -238 113 -294 41 -70 131 -173 191 -218 66 -50 191 -109 296 -139 72
-21 100 -24 280 -24 222 0 279 9 460 71 184 64 325 165 388 281 51 95 129 417
151 627 10 96 87 229 116 200 6 -6 19 -150 30 -320 18 -285 43 -682 55 -864
22 -350 39 -556 45 -563 9 -10 85 143 218 435 17 36 54 115 83 175 28 59 71
149 94 198 24 50 59 124 78 165 63 137 104 224 186 393 44 93 81 170 81 172 0
2 99 212 253 535 49 103 111 237 159 340 16 36 54 115 83 175 81 167 165 347
165 351 0 3 31 69 68 147 152 315 141 268 96 427 -9 30 -22 78 -30 105 -8 28
-26 91 -40 140 -14 50 -32 113 -39 140 -28 111 -68 257 -102 375 -19 69 -42
150 -50 180 -8 30 -21 78 -29 105 -8 28 -19 66 -24 85 -5 19 -16 58 -24 85 -8
28 -42 148 -75 268 -33 119 -63 222 -66 227 -3 5 -207 177 -453 382 -246 204
-485 404 -532 443 -576 482 -1248 1040 -1269 1055 -37 26 -51 27 -186 18z
m-1034 -3526 c79 -54 189 -129 244 -167 55 -38 170 -116 255 -174 265 -180
475 -324 557 -380 43 -30 166 -114 273 -186 107 -72 227 -154 265 -180 66 -46
121 -83 395 -269 130 -88 164 -116 153 -127 -5 -4 -53 -1 -108 8 -156 25 -952
25 -1125 0 -249 -36 -492 -90 -645 -142 -238 -81 -293 -79 -660 27 -174 51
-234 63 -505 108 -138 22 -420 32 -752 26 -244 -4 -338 -2 -338 6 0 6 10 20
23 31 38 34 428 361 467 392 47 37 393 327 400 335 7 8 234 198 280 235 21 17
129 107 241 201 387 325 422 354 429 354 3 0 71 -44 151 -98z"/>
<path d="M4135 1230 c-44 -18 -458 -191 -575 -240 -141 -59 -222 -94 -263
-115 -16 -8 -32 -15 -37 -15 -5 0 -38 -14 -75 -31 -108 -50 -113 -49 -260 25
-113 57 -165 77 -165 62 0 -4 122 -286 163 -376 14 -30 32 -63 39 -74 12 -16
283 -128 346 -143 13 -3 49 2 80 11 50 14 212 53 477 116 44 10 139 33 210 50
72 17 155 37 185 46 65 19 193 14 285 -9 33 -9 89 -22 125 -30 36 -9 193 -46
350 -83 157 -37 305 -69 329 -72 24 -2 76 3 115 11 39 9 114 24 166 32 52 9
112 22 134 28 l39 12 79 190 c44 105 84 199 90 209 21 38 28 77 15 82 -7 2
-64 -29 -127 -71 -63 -42 -124 -78 -135 -81 -17 -4 -221 73 -303 115 -9 5 -35
17 -57 26 -22 10 -48 22 -57 26 -9 5 -125 54 -258 109 -133 55 -249 104 -258
109 -29 14 -127 56 -185 80 -33 13 -441 14 -472 1z"/>
</g>
</svg>
