<?xml version="1.0" encoding="iso-8859-1"?>
<!-- Generator: Adobe Illustrator 19.0.0, SVG Export Plug-In . SVG Version: 6.00 Build 0)  -->
<svg version="1.1" id="Capa_1" xmlns="http://www.w3.org/2000/svg" xmlns:xlink="http://www.w3.org/1999/xlink" x="0px" y="0px"
	 viewBox="0 0 512 512" style="enable-background:new 0 0 512 512;" xml:space="preserve">
<polygon style="fill:#DE0E0E;" points="334.098,239.714 185.074,232.542 40,377.616 103.64,398.829 124.853,462.468 256,331.321 
	387.147,462.468 408.36,398.829 472,377.616 "/>
<polygon style="fill:#A10101;" points="334.098,239.714 256,235.955 256,331.321 387.147,462.468 408.36,398.829 472,377.616 "/>
<path style="fill:#FD2D12;" d="M44.976,327.455c-8.574,0-17.093-2.465-24.536-7.313C7.641,311.805,0,297.709,0,282.435V94.553
	c0-15.274,7.641-29.37,20.44-37.707s28.781-9.627,42.752-3.452L211,118.724v139.54l-147.808,65.33
	C57.346,326.178,51.146,327.455,44.976,327.455z"/>
<g>
	<rect x="106" y="173.491" style="fill:#DE0E0E;" width="90" height="30"/>
	<path style="fill:#DE0E0E;" d="M467.023,327.455c-6.171,0-12.368-1.277-18.216-3.861L301,258.264v-139.54l147.809-65.33
		c13.97-6.175,29.951-4.885,42.751,3.452C504.358,65.183,512,79.279,512,94.553v187.881c0,15.274-7.642,29.371-20.44,37.707
		C484.117,324.989,475.598,327.454,467.023,327.455z"/>
</g>
<path style="fill:#FF672A;" d="M286,263.494h-60c-24.813,0-45-20.187-45-45v-60c0-24.813,20.187-45,45-45h60
	c24.813,0,45,20.187,45,45v60C331,243.307,310.813,263.494,286,263.494z"/>
<rect x="316" y="173.491" style="fill:#A10101;" width="90" height="30"/>
<path style="fill:#FD2D12;" d="M286,113.494h-30v150h30c24.813,0,45-20.187,45-45v-60C331,133.681,310.813,113.494,286,113.494z"/>
<g>
</g>
<g>
</g>
<g>
</g>
<g>
</g>
<g>
</g>
<g>
</g>
<g>
</g>
<g>
</g>
<g>
</g>
<g>
</g>
<g>
</g>
<g>
</g>
<g>
</g>
<g>
</g>
<g>
</g>
</svg>
